<svg width="24" height="24" viewBox="0 0 24 24" fill="none" xmlns="http://www.w3.org/2000/svg">
                  <path
                    d="M12 17.75C12.4641 17.75 12.9091 17.9345 13.2373 18.2627C13.5655 18.5909 13.75 19.0359 13.75 19.5C13.75 19.9641 13.5655 20.4091 13.2373 20.7373C12.9091 21.0655 12.4641 21.25 12 21.25C11.5359 21.25 11.0909 21.0655 10.7627 20.7373C10.4345 20.4091 10.25 19.9641 10.25 19.5C10.25 19.0359 10.4345 18.5909 10.7627 18.2627C11.0909 17.9345 11.5359 17.75 12 17.75ZM12 10.25C12.4641 10.25 12.9091 10.4345 13.2373 10.7627C13.5655 11.0909 13.75 11.5359 13.75 12C13.75 12.4641 13.5655 12.9091 13.2373 13.2373C12.9091 13.5655 12.4641 13.75 12 13.75C11.5359 13.75 11.0909 13.5655 10.7627 13.2373C10.4345 12.9091 10.25 12.4641 10.25 12C10.25 11.5359 10.4345 11.0909 10.7627 10.7627C11.0909 10.4345 11.5359 10.25 12 10.25ZM12 2.75C12.4641 2.75 12.9091 2.93451 13.2373 3.2627C13.5655 3.59088 13.75 4.03587 13.75 4.5C13.75 4.96413 13.5655 5.40912 13.2373 5.7373C12.9091 6.06549 12.4641 6.25 12 6.25C11.5359 6.25 11.0909 6.06549 10.7627 5.7373C10.4345 5.40912 10.25 4.96413 10.25 4.5C10.25 4.03587 10.4345 3.59088 10.7627 3.2627C11.0499 2.97551 11.4265 2.79855 11.8271 2.75879L12 2.75Z"
                    fill="#FF5500" stroke="#FF5500" />
                </svg>